<svg xmlns="http://www.w3.org/2000/svg" version="1.1" viewBox="0 0 1024 1024" class="icon"><path d="M512 1021.725c-281.076 0-509.725-228.647-509.725-509.725s228.647-509.725 509.725-509.725 509.725 228.647 509.725 509.725-228.647 509.725-509.725 509.725zM512 75.421c-240.736 0-436.579 195.843-436.579 436.579 0 240.699 195.843 436.579 436.579 436.579 240.699 0 436.579-195.879 436.579-436.579 0-240.736-195.879-436.579-436.579-436.579zM563.264 513.566l157.433-155.721c14.308-14.127 14.418-37.173 0.291-51.483-14.127-14.308-37.21-14.418-51.483-0.291l-157.65 155.903-155.248-155.721c-14.236-14.236-37.246-14.308-51.483-0.073-14.236 14.199-14.272 37.246-0.073 51.483l155.029 155.502-156.303 154.628c-14.308 14.163-14.418 37.173-0.291 51.483 7.136 7.209 16.493 10.814 25.887 10.814 9.248 0 18.496-3.532 25.596-10.523l156.522-154.811 157.796 158.306c7.1 7.136 16.42 10.704 25.777 10.704 9.321 0 18.605-3.568 25.705-10.631 14.236-14.199 14.272-37.21 0.073-51.483l-157.578-158.087z"/></svg>