<svg xmlns="http://www.w3.org/2000/svg" viewBox="0 0 1024 1024"><path fill="currentColor" d="M512 1021.7C231 1021.7 2.3 793.1 2.3 512S230.9 2.3 512 2.3s509.7 228.6 509.7 509.7-228.6 509.7-509.7 509.7zm0-946.6C271 75 75 271 75 512s196 437 437 437 437-196 437-437S753 75 512 75zm207.7 448.4a37.2 37.2 0 0 0-52.3 0l-119 118.2v-349a36.4 36.4 0 1 0-72.8 0v350.9L355.9 522.2a36.4 36.4 0 0 0-51.6-.3 36.6 36.6 0 0 0-.2 51.8l181.3 183.2a36.6 36.6 0 0 0 51.8.3v-.1l.2-.1 182.2-181.7a36.6 36.6 0 0 0 .1-51.8z"/></svg>