<svg xmlns="http://www.w3.org/2000/svg" version="1.1" viewBox="0 0 1024 1024" class="icon"><path d="M512 1021.725c-281.076 0-509.725-228.647-509.725-509.725s228.647-509.725 509.725-509.725 509.725 228.647 509.725 509.725-228.647 509.725-509.725 509.725zM512 75.093c-240.917 0-436.907 195.989-436.907 436.907s195.989 436.907 436.907 436.907c240.917 0 436.907-195.989 436.907-436.907 0-240.917-195.989-436.907-436.907-436.907zM719.713 523.541c-14.272-14.346-37.974-14.382-52.283-0.073l-119.021 118.22v-348.907c0-20.207-16.165-36.591-36.409-36.591-20.207 0-36.409 16.384-36.409 36.591v350.8l-119.712-121.388c-14.199-14.346-37.21-14.491-51.555-0.291-14.382 14.236-14.418 37.428-0.219 51.774l181.316 183.246c7.136 7.209 16.603 10.886 26.032 10.886 9.284 0 18.641-3.604 25.741-10.595 0.036-0.073 0.036-0.073 0.073-0.146 0.036 0 0.073 0 0.109-0.073l182.262-181.68c14.308-14.272 14.346-37.465 0.073-51.774z"/></svg>