<svg xmlns="http://www.w3.org/2000/svg" viewBox="0 0 1024 1024" class="icon"><path d="M512 1021.7C231 1021.7 2.3 793.1 2.3 512S230.9 2.3 512 2.3s509.7 228.6 509.7 509.7-228.6 509.7-509.7 509.7zm0-946.3A437 437 0 0 0 75.4 512 437 437 0 0 0 512 948.6 437.1 437.1 0 0 0 948.6 512 437 437 0 0 0 512 75.4zm51.3 438.2 157.4-155.8a36.4 36.4 0 1 0-51.2-51.7L512 462 356.6 306.3a36.4 36.4 0 1 0-51.5 51.4l155 155.5-156.3 154.6a36.4 36.4 0 1 0 51.2 51.8l156.5-154.8L669.3 723a36.2 36.2 0 0 0 51.5 0 36.4 36.4 0 0 0 0-51.4L563.3 513.6z"/></svg>